<mxfile host="app.diagrams.net" modified="2023-10-29T14:19:28.815Z" agent="Mozilla/5.0 (Windows NT 10.0; Win64; x64) AppleWebKit/537.36 (KHTML, like Gecko) Chrome/118.0.0.0 Safari/537.36" etag="3GLunoBAL6AROfA81ywU" version="22.0.8" type="github">
  <diagram id="C5RBs43oDa-KdzZeNtuy" name="Page-1">
    <mxGraphModel dx="1434" dy="758" grid="1" gridSize="10" guides="1" tooltips="1" connect="1" arrows="1" fold="1" page="1" pageScale="1" pageWidth="827" pageHeight="1169" math="0" shadow="0">
      <root>
        <mxCell id="WIyWlLk6GJQsqaUBKTNV-0" />
        <mxCell id="WIyWlLk6GJQsqaUBKTNV-1" parent="WIyWlLk6GJQsqaUBKTNV-0" />
        <mxCell id="iETxbBGrQo1gQBxABtam-1" value="&lt;font style=&quot;font-size: 20px;&quot;&gt;動物&lt;/font&gt;" style="swimlane;fontStyle=1;align=center;verticalAlign=top;childLayout=stackLayout;horizontal=1;startSize=40;horizontalStack=0;resizeParent=1;resizeParentMax=0;resizeLast=0;collapsible=1;marginBottom=0;whiteSpace=wrap;html=1;arcSize=22;fillColor=#FA6800;strokeColor=#C73500;fontColor=#000000;" parent="WIyWlLk6GJQsqaUBKTNV-1" vertex="1">
          <mxGeometry x="640" y="80" width="320" height="160" as="geometry" />
        </mxCell>
        <mxCell id="iETxbBGrQo1gQBxABtam-2" value="&lt;font style=&quot;font-size: 20px;&quot;&gt;有生命&lt;/font&gt;" style="text;strokeColor=none;fillColor=none;align=left;verticalAlign=top;spacingLeft=4;spacingRight=4;overflow=hidden;rotatable=0;points=[[0,0.5],[1,0.5]];portConstraint=eastwest;whiteSpace=wrap;html=1;" parent="iETxbBGrQo1gQBxABtam-1" vertex="1">
          <mxGeometry y="40" width="320" height="26" as="geometry" />
        </mxCell>
        <mxCell id="iETxbBGrQo1gQBxABtam-3" value="" style="line;strokeWidth=1;fillColor=none;align=left;verticalAlign=middle;spacingTop=-1;spacingLeft=3;spacingRight=3;rotatable=0;labelPosition=right;points=[];portConstraint=eastwest;strokeColor=inherit;" parent="iETxbBGrQo1gQBxABtam-1" vertex="1">
          <mxGeometry y="66" width="320" height="34" as="geometry" />
        </mxCell>
        <mxCell id="iETxbBGrQo1gQBxABtam-4" value="&lt;font style=&quot;font-size: 20px;&quot;&gt;新陳代謝(inO&lt;span style=&quot;color: rgb(32, 33, 34); font-family: sans-serif; text-indent: 0em; background-color: rgb(255, 255, 255); line-height: 1.2em; display: inline-block; margin-bottom: -0.3em; vertical-align: -0.4em; font-size: 10.5056px; animation-delay: -0.01ms !important; animation-duration: 0.01ms !important; animation-iteration-count: 1 !important; scroll-behavior: auto !important; transition-duration: 0ms !important;&quot;&gt;&lt;br style=&quot;animation-delay: -0.01ms !important; animation-duration: 0.01ms !important; animation-iteration-count: 1 !important; scroll-behavior: auto !important; transition-duration: 0ms !important;&quot;&gt;2&lt;/span&gt;氧氣: in water: 水)&lt;br&gt;繁殖()&lt;br&gt;&lt;/font&gt;" style="text;strokeColor=none;fillColor=none;align=left;verticalAlign=top;spacingLeft=4;spacingRight=4;overflow=hidden;rotatable=0;points=[[0,0.5],[1,0.5]];portConstraint=eastwest;whiteSpace=wrap;html=1;spacingTop=0;spacingBottom=0;" parent="iETxbBGrQo1gQBxABtam-1" vertex="1">
          <mxGeometry y="100" width="320" height="60" as="geometry" />
        </mxCell>
        <mxCell id="iETxbBGrQo1gQBxABtam-12" value="&lt;font style=&quot;font-size: 20px;&quot;&gt;氧氣&lt;/font&gt;" style="swimlane;fontStyle=1;align=center;verticalAlign=top;childLayout=stackLayout;horizontal=1;startSize=30;horizontalStack=0;resizeParent=1;resizeParentMax=0;resizeLast=0;collapsible=1;marginBottom=0;whiteSpace=wrap;html=1;fillColor=#76608a;strokeColor=#432D57;fontColor=#ffffff;" parent="WIyWlLk6GJQsqaUBKTNV-1" vertex="1">
          <mxGeometry x="1200" y="40" width="80" height="90" as="geometry" />
        </mxCell>
        <mxCell id="iETxbBGrQo1gQBxABtam-13" value="&amp;nbsp;&amp;nbsp;" style="text;strokeColor=none;fillColor=none;align=left;verticalAlign=top;spacingLeft=4;spacingRight=4;overflow=hidden;rotatable=0;points=[[0,0.5],[1,0.5]];portConstraint=eastwest;whiteSpace=wrap;html=1;" parent="iETxbBGrQo1gQBxABtam-12" vertex="1">
          <mxGeometry y="30" width="80" height="26" as="geometry" />
        </mxCell>
        <mxCell id="iETxbBGrQo1gQBxABtam-14" value="" style="line;strokeWidth=1;fillColor=none;align=left;verticalAlign=middle;spacingTop=-1;spacingLeft=3;spacingRight=3;rotatable=0;labelPosition=right;points=[];portConstraint=eastwest;strokeColor=inherit;" parent="iETxbBGrQo1gQBxABtam-12" vertex="1">
          <mxGeometry y="56" width="80" height="8" as="geometry" />
        </mxCell>
        <mxCell id="iETxbBGrQo1gQBxABtam-15" value="&amp;nbsp;&amp;nbsp;" style="text;strokeColor=none;fillColor=none;align=left;verticalAlign=top;spacingLeft=4;spacingRight=4;overflow=hidden;rotatable=0;points=[[0,0.5],[1,0.5]];portConstraint=eastwest;whiteSpace=wrap;html=1;" parent="iETxbBGrQo1gQBxABtam-12" vertex="1">
          <mxGeometry y="64" width="80" height="26" as="geometry" />
        </mxCell>
        <mxCell id="iETxbBGrQo1gQBxABtam-16" value="&lt;font style=&quot;font-size: 20px;&quot;&gt;水&lt;/font&gt;" style="swimlane;fontStyle=1;align=center;verticalAlign=top;childLayout=stackLayout;horizontal=1;startSize=30;horizontalStack=0;resizeParent=1;resizeParentMax=0;resizeLast=0;collapsible=1;marginBottom=0;whiteSpace=wrap;html=1;fillColor=#76608a;strokeColor=#432D57;fontColor=#ffffff;" parent="WIyWlLk6GJQsqaUBKTNV-1" vertex="1">
          <mxGeometry x="1200" y="200" width="80" height="90" as="geometry" />
        </mxCell>
        <mxCell id="iETxbBGrQo1gQBxABtam-17" value="&amp;nbsp;&amp;nbsp;" style="text;strokeColor=none;fillColor=none;align=left;verticalAlign=top;spacingLeft=4;spacingRight=4;overflow=hidden;rotatable=0;points=[[0,0.5],[1,0.5]];portConstraint=eastwest;whiteSpace=wrap;html=1;" parent="iETxbBGrQo1gQBxABtam-16" vertex="1">
          <mxGeometry y="30" width="80" height="26" as="geometry" />
        </mxCell>
        <mxCell id="iETxbBGrQo1gQBxABtam-18" value="" style="line;strokeWidth=1;fillColor=none;align=left;verticalAlign=middle;spacingTop=-1;spacingLeft=3;spacingRight=3;rotatable=0;labelPosition=right;points=[];portConstraint=eastwest;strokeColor=inherit;" parent="iETxbBGrQo1gQBxABtam-16" vertex="1">
          <mxGeometry y="56" width="80" height="8" as="geometry" />
        </mxCell>
        <mxCell id="iETxbBGrQo1gQBxABtam-19" value="&amp;nbsp;&amp;nbsp;" style="text;strokeColor=none;fillColor=none;align=left;verticalAlign=top;spacingLeft=4;spacingRight=4;overflow=hidden;rotatable=0;points=[[0,0.5],[1,0.5]];portConstraint=eastwest;whiteSpace=wrap;html=1;" parent="iETxbBGrQo1gQBxABtam-16" vertex="1">
          <mxGeometry y="64" width="80" height="26" as="geometry" />
        </mxCell>
        <mxCell id="iETxbBGrQo1gQBxABtam-21" value="&lt;font style=&quot;font-size: 17px;&quot;&gt;依賴關係&lt;/font&gt;" style="shape=note;size=11;whiteSpace=wrap;html=1;fillColor=#dae8fc;strokeColor=#6c8ebf;" parent="WIyWlLk6GJQsqaUBKTNV-1" vertex="1">
          <mxGeometry x="980" y="110" width="90" height="40" as="geometry" />
        </mxCell>
        <mxCell id="iETxbBGrQo1gQBxABtam-56" value="" style="endArrow=none;dashed=1;endFill=0;endSize=12;html=1;rounded=0;strokeWidth=1;" parent="WIyWlLk6GJQsqaUBKTNV-1" edge="1">
          <mxGeometry width="160" relative="1" as="geometry">
            <mxPoint x="1120" y="80" as="sourcePoint" />
            <mxPoint x="1120" y="240" as="targetPoint" />
          </mxGeometry>
        </mxCell>
        <mxCell id="iETxbBGrQo1gQBxABtam-57" value="" style="endArrow=none;dashed=1;endFill=0;endSize=12;html=1;rounded=0;strokeWidth=1;exitX=1;exitY=0.5;exitDx=0;exitDy=0;" parent="WIyWlLk6GJQsqaUBKTNV-1" source="iETxbBGrQo1gQBxABtam-1" edge="1">
          <mxGeometry width="160" relative="1" as="geometry">
            <mxPoint x="980" y="159.5" as="sourcePoint" />
            <mxPoint x="1120" y="159.5" as="targetPoint" />
          </mxGeometry>
        </mxCell>
        <mxCell id="iETxbBGrQo1gQBxABtam-58" value="&lt;font style=&quot;font-size: 20px;&quot;&gt;動物&lt;/font&gt;" style="swimlane;fontStyle=1;align=center;verticalAlign=top;childLayout=stackLayout;horizontal=1;startSize=40;horizontalStack=0;resizeParent=1;resizeParentMax=0;resizeLast=0;collapsible=1;marginBottom=0;whiteSpace=wrap;html=1;arcSize=22;fillColor=#FA6800;strokeColor=#C73500;fontColor=#000000;" parent="WIyWlLk6GJQsqaUBKTNV-1" vertex="1">
          <mxGeometry x="640" y="510" width="320" height="160" as="geometry" />
        </mxCell>
        <mxCell id="iETxbBGrQo1gQBxABtam-59" value="&lt;font style=&quot;font-size: 20px;&quot;&gt;有生命&lt;/font&gt;" style="text;strokeColor=none;fillColor=none;align=left;verticalAlign=top;spacingLeft=4;spacingRight=4;overflow=hidden;rotatable=0;points=[[0,0.5],[1,0.5]];portConstraint=eastwest;whiteSpace=wrap;html=1;" parent="iETxbBGrQo1gQBxABtam-58" vertex="1">
          <mxGeometry y="40" width="320" height="26" as="geometry" />
        </mxCell>
        <mxCell id="iETxbBGrQo1gQBxABtam-60" value="" style="line;strokeWidth=1;fillColor=none;align=left;verticalAlign=middle;spacingTop=-1;spacingLeft=3;spacingRight=3;rotatable=0;labelPosition=right;points=[];portConstraint=eastwest;strokeColor=inherit;" parent="iETxbBGrQo1gQBxABtam-58" vertex="1">
          <mxGeometry y="66" width="320" height="34" as="geometry" />
        </mxCell>
        <mxCell id="iETxbBGrQo1gQBxABtam-61" value="&lt;font style=&quot;font-size: 20px;&quot;&gt;新陳代謝(inO&lt;span style=&quot;color: rgb(32, 33, 34); font-family: sans-serif; text-indent: 0em; background-color: rgb(255, 255, 255); line-height: 1.2em; display: inline-block; margin-bottom: -0.3em; vertical-align: -0.4em; font-size: 10.5056px; animation-delay: -0.01ms !important; animation-duration: 0.01ms !important; animation-iteration-count: 1 !important; scroll-behavior: auto !important; transition-duration: 0ms !important;&quot;&gt;&lt;br style=&quot;animation-delay: -0.01ms !important; animation-duration: 0.01ms !important; animation-iteration-count: 1 !important; scroll-behavior: auto !important; transition-duration: 0ms !important;&quot;&gt;2&lt;/span&gt;氧氣: in water: 水)&lt;br&gt;繁殖()&lt;br&gt;&lt;/font&gt;" style="text;strokeColor=none;fillColor=none;align=left;verticalAlign=top;spacingLeft=4;spacingRight=4;overflow=hidden;rotatable=0;points=[[0,0.5],[1,0.5]];portConstraint=eastwest;whiteSpace=wrap;html=1;spacingTop=0;spacingBottom=0;" parent="iETxbBGrQo1gQBxABtam-58" vertex="1">
          <mxGeometry y="100" width="320" height="60" as="geometry" />
        </mxCell>
        <mxCell id="iETxbBGrQo1gQBxABtam-62" value="&lt;font style=&quot;font-size: 20px;&quot;&gt;氧氣&lt;/font&gt;" style="swimlane;fontStyle=1;align=center;verticalAlign=top;childLayout=stackLayout;horizontal=1;startSize=30;horizontalStack=0;resizeParent=1;resizeParentMax=0;resizeLast=0;collapsible=1;marginBottom=0;whiteSpace=wrap;html=1;fillColor=#76608a;strokeColor=#432D57;fontColor=#ffffff;" parent="WIyWlLk6GJQsqaUBKTNV-1" vertex="1">
          <mxGeometry x="1200" y="470" width="80" height="90" as="geometry" />
        </mxCell>
        <mxCell id="iETxbBGrQo1gQBxABtam-63" value="&amp;nbsp;&amp;nbsp;" style="text;strokeColor=none;fillColor=none;align=left;verticalAlign=top;spacingLeft=4;spacingRight=4;overflow=hidden;rotatable=0;points=[[0,0.5],[1,0.5]];portConstraint=eastwest;whiteSpace=wrap;html=1;" parent="iETxbBGrQo1gQBxABtam-62" vertex="1">
          <mxGeometry y="30" width="80" height="26" as="geometry" />
        </mxCell>
        <mxCell id="iETxbBGrQo1gQBxABtam-64" value="" style="line;strokeWidth=1;fillColor=none;align=left;verticalAlign=middle;spacingTop=-1;spacingLeft=3;spacingRight=3;rotatable=0;labelPosition=right;points=[];portConstraint=eastwest;strokeColor=inherit;" parent="iETxbBGrQo1gQBxABtam-62" vertex="1">
          <mxGeometry y="56" width="80" height="8" as="geometry" />
        </mxCell>
        <mxCell id="iETxbBGrQo1gQBxABtam-65" value="&amp;nbsp;&amp;nbsp;" style="text;strokeColor=none;fillColor=none;align=left;verticalAlign=top;spacingLeft=4;spacingRight=4;overflow=hidden;rotatable=0;points=[[0,0.5],[1,0.5]];portConstraint=eastwest;whiteSpace=wrap;html=1;" parent="iETxbBGrQo1gQBxABtam-62" vertex="1">
          <mxGeometry y="64" width="80" height="26" as="geometry" />
        </mxCell>
        <mxCell id="iETxbBGrQo1gQBxABtam-66" value="&lt;font style=&quot;font-size: 20px;&quot;&gt;水&lt;/font&gt;" style="swimlane;fontStyle=1;align=center;verticalAlign=top;childLayout=stackLayout;horizontal=1;startSize=30;horizontalStack=0;resizeParent=1;resizeParentMax=0;resizeLast=0;collapsible=1;marginBottom=0;whiteSpace=wrap;html=1;fillColor=#76608a;strokeColor=#432D57;fontColor=#ffffff;" parent="WIyWlLk6GJQsqaUBKTNV-1" vertex="1">
          <mxGeometry x="1200" y="630" width="80" height="90" as="geometry" />
        </mxCell>
        <mxCell id="iETxbBGrQo1gQBxABtam-67" value="&amp;nbsp;&amp;nbsp;" style="text;strokeColor=none;fillColor=none;align=left;verticalAlign=top;spacingLeft=4;spacingRight=4;overflow=hidden;rotatable=0;points=[[0,0.5],[1,0.5]];portConstraint=eastwest;whiteSpace=wrap;html=1;" parent="iETxbBGrQo1gQBxABtam-66" vertex="1">
          <mxGeometry y="30" width="80" height="26" as="geometry" />
        </mxCell>
        <mxCell id="iETxbBGrQo1gQBxABtam-68" value="" style="line;strokeWidth=1;fillColor=none;align=left;verticalAlign=middle;spacingTop=-1;spacingLeft=3;spacingRight=3;rotatable=0;labelPosition=right;points=[];portConstraint=eastwest;strokeColor=inherit;" parent="iETxbBGrQo1gQBxABtam-66" vertex="1">
          <mxGeometry y="56" width="80" height="8" as="geometry" />
        </mxCell>
        <mxCell id="iETxbBGrQo1gQBxABtam-69" value="&amp;nbsp;&amp;nbsp;" style="text;strokeColor=none;fillColor=none;align=left;verticalAlign=top;spacingLeft=4;spacingRight=4;overflow=hidden;rotatable=0;points=[[0,0.5],[1,0.5]];portConstraint=eastwest;whiteSpace=wrap;html=1;" parent="iETxbBGrQo1gQBxABtam-66" vertex="1">
          <mxGeometry y="64" width="80" height="26" as="geometry" />
        </mxCell>
        <mxCell id="iETxbBGrQo1gQBxABtam-70" value="&lt;font style=&quot;font-size: 17px;&quot;&gt;依賴關係&lt;/font&gt;" style="shape=note;size=11;whiteSpace=wrap;html=1;fillColor=#dae8fc;strokeColor=#6c8ebf;" parent="WIyWlLk6GJQsqaUBKTNV-1" vertex="1">
          <mxGeometry x="980" y="540" width="90" height="40" as="geometry" />
        </mxCell>
        <mxCell id="iETxbBGrQo1gQBxABtam-73" value="" style="endArrow=none;dashed=1;endFill=0;endSize=12;html=1;rounded=0;strokeWidth=1;" parent="WIyWlLk6GJQsqaUBKTNV-1" edge="1">
          <mxGeometry width="160" relative="1" as="geometry">
            <mxPoint x="1120" y="520" as="sourcePoint" />
            <mxPoint x="1120" y="680" as="targetPoint" />
          </mxGeometry>
        </mxCell>
        <mxCell id="iETxbBGrQo1gQBxABtam-74" value="" style="endArrow=none;dashed=1;endFill=0;endSize=12;html=1;rounded=0;strokeWidth=1;exitX=1;exitY=0.5;exitDx=0;exitDy=0;" parent="WIyWlLk6GJQsqaUBKTNV-1" source="iETxbBGrQo1gQBxABtam-58" edge="1">
          <mxGeometry width="160" relative="1" as="geometry">
            <mxPoint x="980" y="589.5" as="sourcePoint" />
            <mxPoint x="1120" y="589.5" as="targetPoint" />
          </mxGeometry>
        </mxCell>
        <mxCell id="iETxbBGrQo1gQBxABtam-75" value="" style="endArrow=none;dashed=1;endFill=0;endSize=12;html=1;rounded=0;strokeWidth=1;" parent="WIyWlLk6GJQsqaUBKTNV-1" edge="1">
          <mxGeometry width="160" relative="1" as="geometry">
            <mxPoint x="480" y="520" as="sourcePoint" />
            <mxPoint x="630" y="600" as="targetPoint" />
            <Array as="points">
              <mxPoint x="560" y="520" />
              <mxPoint x="560" y="600" />
            </Array>
          </mxGeometry>
        </mxCell>
        <mxCell id="iETxbBGrQo1gQBxABtam-76" value="&lt;div style=&quot;text-align: left; font-size: 16px;&quot;&gt;&lt;span style=&quot;background-color: initial;&quot;&gt;&lt;font style=&quot;font-size: 16px;&quot;&gt;&lt;b&gt;類&lt;/b&gt;&lt;/font&gt;&lt;/span&gt;&lt;/div&gt;&lt;div style=&quot;text-align: left; font-size: 16px;&quot;&gt;&lt;span style=&quot;background-color: initial;&quot;&gt;&lt;font style=&quot;font-size: 16px;&quot;&gt;&lt;b&gt;第一行:類名稱&lt;/b&gt;&lt;/font&gt;&lt;/span&gt;&lt;/div&gt;&lt;div style=&quot;text-align: left; font-size: 16px;&quot;&gt;&lt;span style=&quot;background-color: initial;&quot;&gt;&lt;font style=&quot;font-size: 16px;&quot;&gt;&lt;b&gt;第二行:屬性&lt;/b&gt;&lt;/font&gt;&lt;/span&gt;&lt;/div&gt;&lt;div style=&quot;text-align: left; font-size: 16px;&quot;&gt;&lt;span style=&quot;background-color: initial;&quot;&gt;&lt;font style=&quot;font-size: 16px;&quot;&gt;&lt;b&gt;第三行:方法&lt;/b&gt;&lt;/font&gt;&lt;/span&gt;&lt;/div&gt;&lt;div style=&quot;text-align: left; font-size: 16px;&quot;&gt;&lt;font style=&quot;font-size: 16px;&quot;&gt;&lt;b&gt;&lt;br&gt;&lt;/b&gt;&lt;/font&gt;&lt;/div&gt;&lt;div style=&quot;text-align: left; font-size: 16px;&quot;&gt;&lt;span style=&quot;background-color: initial;&quot;&gt;&lt;font style=&quot;font-size: 16px;&quot;&gt;&lt;b&gt;類名為斜體字則為抽象類&lt;/b&gt;&lt;/font&gt;&lt;/span&gt;&lt;/div&gt;" style="shape=note;size=35;whiteSpace=wrap;html=1;fillColor=#6d8764;strokeColor=#3A5431;fontColor=#ffffff;" parent="WIyWlLk6GJQsqaUBKTNV-1" vertex="1">
          <mxGeometry x="300" y="445" width="200" height="120" as="geometry" />
        </mxCell>
        <mxCell id="iETxbBGrQo1gQBxABtam-77" value="&lt;font style=&quot;font-size: 20px;&quot;&gt;鳥&lt;/font&gt;" style="swimlane;fontStyle=1;align=center;verticalAlign=top;childLayout=stackLayout;horizontal=1;startSize=30;horizontalStack=0;resizeParent=1;resizeParentMax=0;resizeLast=0;collapsible=1;marginBottom=0;whiteSpace=wrap;html=1;fillColor=#a0522d;strokeColor=#6D1F00;fontColor=#ffffff;" parent="WIyWlLk6GJQsqaUBKTNV-1" vertex="1">
          <mxGeometry x="760" y="760" width="160" height="128" as="geometry" />
        </mxCell>
        <mxCell id="iETxbBGrQo1gQBxABtam-78" value="&lt;font style=&quot;font-size: 20px;&quot;&gt;羽毛&lt;br&gt;有角質沒有牙齒&lt;/font&gt;" style="text;strokeColor=none;fillColor=none;align=left;verticalAlign=top;spacingLeft=4;spacingRight=4;overflow=hidden;rotatable=0;points=[[0,0.5],[1,0.5]];portConstraint=eastwest;whiteSpace=wrap;html=1;" parent="iETxbBGrQo1gQBxABtam-77" vertex="1">
          <mxGeometry y="30" width="160" height="50" as="geometry" />
        </mxCell>
        <mxCell id="iETxbBGrQo1gQBxABtam-79" value="" style="line;strokeWidth=1;fillColor=none;align=left;verticalAlign=middle;spacingTop=-1;spacingLeft=3;spacingRight=3;rotatable=0;labelPosition=right;points=[];portConstraint=eastwest;strokeColor=inherit;" parent="iETxbBGrQo1gQBxABtam-77" vertex="1">
          <mxGeometry y="80" width="160" height="8" as="geometry" />
        </mxCell>
        <mxCell id="iETxbBGrQo1gQBxABtam-80" value="&lt;font style=&quot;font-size: 20px;&quot;&gt;下蛋()&lt;/font&gt;" style="text;strokeColor=none;fillColor=none;align=left;verticalAlign=top;spacingLeft=4;spacingRight=4;overflow=hidden;rotatable=0;points=[[0,0.5],[1,0.5]];portConstraint=eastwest;whiteSpace=wrap;html=1;" parent="iETxbBGrQo1gQBxABtam-77" vertex="1">
          <mxGeometry y="88" width="160" height="40" as="geometry" />
        </mxCell>
        <mxCell id="iETxbBGrQo1gQBxABtam-81" value="" style="endArrow=open;endFill=1;endSize=12;html=1;rounded=0;dashed=1;" parent="WIyWlLk6GJQsqaUBKTNV-1" edge="1">
          <mxGeometry width="160" relative="1" as="geometry">
            <mxPoint x="1120" y="680" as="sourcePoint" />
            <mxPoint x="1200" y="680" as="targetPoint" />
          </mxGeometry>
        </mxCell>
        <mxCell id="iETxbBGrQo1gQBxABtam-82" value="" style="endArrow=open;endFill=1;endSize=12;html=1;rounded=0;dashed=1;" parent="WIyWlLk6GJQsqaUBKTNV-1" edge="1">
          <mxGeometry width="160" relative="1" as="geometry">
            <mxPoint x="1120" y="514.52" as="sourcePoint" />
            <mxPoint x="1200" y="514.52" as="targetPoint" />
          </mxGeometry>
        </mxCell>
        <mxCell id="iETxbBGrQo1gQBxABtam-83" value="" style="endArrow=open;endFill=1;endSize=12;html=1;rounded=0;dashed=1;" parent="WIyWlLk6GJQsqaUBKTNV-1" edge="1">
          <mxGeometry width="160" relative="1" as="geometry">
            <mxPoint x="1120" y="240" as="sourcePoint" />
            <mxPoint x="1200" y="240" as="targetPoint" />
          </mxGeometry>
        </mxCell>
        <mxCell id="iETxbBGrQo1gQBxABtam-84" value="" style="endArrow=open;endFill=1;endSize=12;html=1;rounded=0;dashed=1;" parent="WIyWlLk6GJQsqaUBKTNV-1" edge="1">
          <mxGeometry width="160" relative="1" as="geometry">
            <mxPoint x="1120" y="80" as="sourcePoint" />
            <mxPoint x="1200" y="80" as="targetPoint" />
          </mxGeometry>
        </mxCell>
        <mxCell id="iETxbBGrQo1gQBxABtam-86" value="" style="endArrow=block;endFill=1;endSize=12;html=1;rounded=0;exitX=0.46;exitY=-0.008;exitDx=0;exitDy=0;exitPerimeter=0;entryX=0.594;entryY=1;entryDx=0;entryDy=0;entryPerimeter=0;" parent="WIyWlLk6GJQsqaUBKTNV-1" target="iETxbBGrQo1gQBxABtam-61" edge="1">
          <mxGeometry width="160" relative="1" as="geometry">
            <mxPoint x="829.5200000000003" y="759.5760000000001" as="sourcePoint" />
            <mxPoint x="830" y="670" as="targetPoint" />
          </mxGeometry>
        </mxCell>
        <mxCell id="iETxbBGrQo1gQBxABtam-87" value="" style="endArrow=diamondThin;endFill=1;endSize=24;html=1;rounded=0;strokeColor=default;" parent="WIyWlLk6GJQsqaUBKTNV-1" edge="1">
          <mxGeometry width="160" relative="1" as="geometry">
            <mxPoint x="600" y="800" as="sourcePoint" />
            <mxPoint x="760" y="820" as="targetPoint" />
            <Array as="points">
              <mxPoint x="640" y="800" />
              <mxPoint x="640" y="820" />
            </Array>
          </mxGeometry>
        </mxCell>
        <mxCell id="iETxbBGrQo1gQBxABtam-88" value="&lt;font style=&quot;font-size: 20px;&quot;&gt;翅膀&lt;/font&gt;" style="swimlane;fontStyle=1;align=center;verticalAlign=top;childLayout=stackLayout;horizontal=1;startSize=30;horizontalStack=0;resizeParent=1;resizeParentMax=0;resizeLast=0;collapsible=1;marginBottom=0;whiteSpace=wrap;html=1;fillColor=#e1d5e7;strokeColor=#9673a6;" parent="WIyWlLk6GJQsqaUBKTNV-1" vertex="1">
          <mxGeometry x="520" y="750" width="80" height="90" as="geometry" />
        </mxCell>
        <mxCell id="iETxbBGrQo1gQBxABtam-89" value="&amp;nbsp;&amp;nbsp;" style="text;strokeColor=none;fillColor=none;align=left;verticalAlign=top;spacingLeft=4;spacingRight=4;overflow=hidden;rotatable=0;points=[[0,0.5],[1,0.5]];portConstraint=eastwest;whiteSpace=wrap;html=1;" parent="iETxbBGrQo1gQBxABtam-88" vertex="1">
          <mxGeometry y="30" width="80" height="26" as="geometry" />
        </mxCell>
        <mxCell id="iETxbBGrQo1gQBxABtam-90" value="" style="line;strokeWidth=1;fillColor=none;align=left;verticalAlign=middle;spacingTop=-1;spacingLeft=3;spacingRight=3;rotatable=0;labelPosition=right;points=[];portConstraint=eastwest;strokeColor=inherit;" parent="iETxbBGrQo1gQBxABtam-88" vertex="1">
          <mxGeometry y="56" width="80" height="8" as="geometry" />
        </mxCell>
        <mxCell id="iETxbBGrQo1gQBxABtam-91" value="&amp;nbsp;&amp;nbsp;" style="text;strokeColor=none;fillColor=none;align=left;verticalAlign=top;spacingLeft=4;spacingRight=4;overflow=hidden;rotatable=0;points=[[0,0.5],[1,0.5]];portConstraint=eastwest;whiteSpace=wrap;html=1;" parent="iETxbBGrQo1gQBxABtam-88" vertex="1">
          <mxGeometry y="64" width="80" height="26" as="geometry" />
        </mxCell>
        <mxCell id="iETxbBGrQo1gQBxABtam-92" value="&lt;font style=&quot;font-size: 17px;&quot;&gt;組合關係&lt;/font&gt;" style="shape=note;size=11;whiteSpace=wrap;html=1;fillColor=#dae8fc;strokeColor=#6c8ebf;" parent="WIyWlLk6GJQsqaUBKTNV-1" vertex="1">
          <mxGeometry x="640" y="760" width="90" height="40" as="geometry" />
        </mxCell>
        <mxCell id="iETxbBGrQo1gQBxABtam-93" value="&lt;font style=&quot;font-size: 20px;&quot;&gt;企鵝&lt;/font&gt;" style="swimlane;fontStyle=1;align=center;verticalAlign=top;childLayout=stackLayout;horizontal=1;startSize=40;horizontalStack=0;resizeParent=1;resizeParentMax=0;resizeLast=0;collapsible=1;marginBottom=0;whiteSpace=wrap;html=1;fillColor=#76608a;strokeColor=#432D57;fontColor=#ffffff;" parent="WIyWlLk6GJQsqaUBKTNV-1" vertex="1">
          <mxGeometry x="680" y="1000" width="80" height="142" as="geometry" />
        </mxCell>
        <mxCell id="iETxbBGrQo1gQBxABtam-94" value="&amp;nbsp;&amp;nbsp;" style="text;strokeColor=none;fillColor=none;align=left;verticalAlign=top;spacingLeft=4;spacingRight=4;overflow=hidden;rotatable=0;points=[[0,0.5],[1,0.5]];portConstraint=eastwest;whiteSpace=wrap;html=1;" parent="iETxbBGrQo1gQBxABtam-93" vertex="1">
          <mxGeometry y="40" width="80" height="30" as="geometry" />
        </mxCell>
        <mxCell id="iETxbBGrQo1gQBxABtam-95" value="" style="line;strokeWidth=1;fillColor=none;align=left;verticalAlign=middle;spacingTop=-1;spacingLeft=3;spacingRight=3;rotatable=0;labelPosition=right;points=[];portConstraint=eastwest;strokeColor=inherit;" parent="iETxbBGrQo1gQBxABtam-93" vertex="1">
          <mxGeometry y="70" width="80" height="20" as="geometry" />
        </mxCell>
        <mxCell id="iETxbBGrQo1gQBxABtam-96" value="&lt;p style=&quot;line-height: 110%;&quot;&gt;&lt;font style=&quot;font-size: 20px;&quot;&gt;下蛋()&lt;/font&gt;&lt;/p&gt;" style="text;strokeColor=none;fillColor=none;align=left;verticalAlign=top;spacingLeft=4;spacingRight=4;overflow=hidden;rotatable=0;points=[[0,0.5],[1,0.5]];portConstraint=eastwest;whiteSpace=wrap;html=1;" parent="iETxbBGrQo1gQBxABtam-93" vertex="1">
          <mxGeometry y="90" width="80" height="52" as="geometry" />
        </mxCell>
        <mxCell id="iETxbBGrQo1gQBxABtam-105" value="&lt;font style=&quot;font-size: 20px;&quot;&gt;大雁&lt;/font&gt;" style="swimlane;fontStyle=1;align=center;verticalAlign=top;childLayout=stackLayout;horizontal=1;startSize=40;horizontalStack=0;resizeParent=1;resizeParentMax=0;resizeLast=0;collapsible=1;marginBottom=0;whiteSpace=wrap;html=1;fillColor=#76608a;strokeColor=#432D57;fontColor=#ffffff;" parent="WIyWlLk6GJQsqaUBKTNV-1" vertex="1">
          <mxGeometry x="920" y="1000" width="80" height="140" as="geometry" />
        </mxCell>
        <mxCell id="iETxbBGrQo1gQBxABtam-106" value="&amp;nbsp;&amp;nbsp;" style="text;strokeColor=none;fillColor=none;align=left;verticalAlign=top;spacingLeft=4;spacingRight=4;overflow=hidden;rotatable=0;points=[[0,0.5],[1,0.5]];portConstraint=eastwest;whiteSpace=wrap;html=1;" parent="iETxbBGrQo1gQBxABtam-105" vertex="1">
          <mxGeometry y="40" width="80" height="30" as="geometry" />
        </mxCell>
        <mxCell id="iETxbBGrQo1gQBxABtam-107" value="" style="line;strokeWidth=1;fillColor=none;align=left;verticalAlign=middle;spacingTop=-1;spacingLeft=3;spacingRight=3;rotatable=0;labelPosition=right;points=[];portConstraint=eastwest;strokeColor=inherit;" parent="iETxbBGrQo1gQBxABtam-105" vertex="1">
          <mxGeometry y="70" width="80" height="18" as="geometry" />
        </mxCell>
        <mxCell id="iETxbBGrQo1gQBxABtam-108" value="&lt;font style=&quot;font-size: 20px;&quot;&gt;下蛋()&lt;br&gt;飛&lt;/font&gt;" style="text;strokeColor=none;fillColor=none;align=left;verticalAlign=top;spacingLeft=4;spacingRight=4;overflow=hidden;rotatable=0;points=[[0,0.5],[1,0.5]];portConstraint=eastwest;whiteSpace=wrap;html=1;" parent="iETxbBGrQo1gQBxABtam-105" vertex="1">
          <mxGeometry y="88" width="80" height="52" as="geometry" />
        </mxCell>
        <mxCell id="iETxbBGrQo1gQBxABtam-109" value="&lt;font style=&quot;font-size: 20px;&quot;&gt;鴨&lt;/font&gt;" style="swimlane;fontStyle=1;align=center;verticalAlign=top;childLayout=stackLayout;horizontal=1;startSize=40;horizontalStack=0;resizeParent=1;resizeParentMax=0;resizeLast=0;collapsible=1;marginBottom=0;whiteSpace=wrap;html=1;fillColor=#76608a;strokeColor=#432D57;fontColor=#ffffff;" parent="WIyWlLk6GJQsqaUBKTNV-1" vertex="1">
          <mxGeometry x="800" y="1000" width="80" height="142" as="geometry" />
        </mxCell>
        <mxCell id="iETxbBGrQo1gQBxABtam-110" value="&amp;nbsp;&amp;nbsp;" style="text;strokeColor=none;fillColor=none;align=left;verticalAlign=top;spacingLeft=4;spacingRight=4;overflow=hidden;rotatable=0;points=[[0,0.5],[1,0.5]];portConstraint=eastwest;whiteSpace=wrap;html=1;" parent="iETxbBGrQo1gQBxABtam-109" vertex="1">
          <mxGeometry y="40" width="80" height="30" as="geometry" />
        </mxCell>
        <mxCell id="iETxbBGrQo1gQBxABtam-111" value="" style="line;strokeWidth=1;fillColor=none;align=left;verticalAlign=middle;spacingTop=-1;spacingLeft=3;spacingRight=3;rotatable=0;labelPosition=right;points=[];portConstraint=eastwest;strokeColor=inherit;" parent="iETxbBGrQo1gQBxABtam-109" vertex="1">
          <mxGeometry y="70" width="80" height="20" as="geometry" />
        </mxCell>
        <mxCell id="iETxbBGrQo1gQBxABtam-112" value="&lt;p style=&quot;line-height: 126%;&quot;&gt;&lt;font style=&quot;font-size: 20px;&quot;&gt;下蛋()&lt;/font&gt;&lt;/p&gt;" style="text;strokeColor=none;fillColor=none;align=left;verticalAlign=top;spacingLeft=4;spacingRight=4;overflow=hidden;rotatable=0;points=[[0,0.5],[1,0.5]];portConstraint=eastwest;whiteSpace=wrap;html=1;" parent="iETxbBGrQo1gQBxABtam-109" vertex="1">
          <mxGeometry y="90" width="80" height="52" as="geometry" />
        </mxCell>
        <mxCell id="iETxbBGrQo1gQBxABtam-113" value="" style="endArrow=none;html=1;rounded=0;entryX=0.5;entryY=0;entryDx=0;entryDy=0;exitX=0.5;exitY=0;exitDx=0;exitDy=0;exitPerimeter=0;" parent="WIyWlLk6GJQsqaUBKTNV-1" source="iETxbBGrQo1gQBxABtam-93" target="iETxbBGrQo1gQBxABtam-105" edge="1">
          <mxGeometry relative="1" as="geometry">
            <mxPoint x="720" y="990" as="sourcePoint" />
            <mxPoint x="960" y="990" as="targetPoint" />
            <Array as="points">
              <mxPoint x="720" y="960" />
              <mxPoint x="840" y="960" />
              <mxPoint x="960" y="960" />
            </Array>
          </mxGeometry>
        </mxCell>
        <mxCell id="iETxbBGrQo1gQBxABtam-114" value="" style="endArrow=block;endFill=1;endSize=12;html=1;rounded=0;entryX=0.574;entryY=0.99;entryDx=0;entryDy=0;entryPerimeter=0;exitX=0.5;exitY=0;exitDx=0;exitDy=0;" parent="WIyWlLk6GJQsqaUBKTNV-1" source="iETxbBGrQo1gQBxABtam-109" edge="1">
          <mxGeometry width="160" relative="1" as="geometry">
            <mxPoint x="840" y="990" as="sourcePoint" />
            <mxPoint x="839.5999999999999" y="888.0039999999998" as="targetPoint" />
          </mxGeometry>
        </mxCell>
        <mxCell id="iETxbBGrQo1gQBxABtam-117" value="" style="endArrow=diamondThin;endFill=1;endSize=24;html=1;rounded=0;strokeColor=default;" parent="WIyWlLk6GJQsqaUBKTNV-1" edge="1">
          <mxGeometry width="160" relative="1" as="geometry">
            <mxPoint x="1095" y="1060" as="sourcePoint" />
            <mxPoint x="1000" y="1060" as="targetPoint" />
            <Array as="points">
              <mxPoint x="1120" y="1060" />
              <mxPoint x="1075" y="1060" />
            </Array>
          </mxGeometry>
        </mxCell>
        <mxCell id="iETxbBGrQo1gQBxABtam-118" value="&lt;font style=&quot;font-size: 17px;&quot;&gt;聚合關係&lt;/font&gt;" style="shape=note;size=11;whiteSpace=wrap;html=1;fillColor=#dae8fc;strokeColor=#6c8ebf;" parent="WIyWlLk6GJQsqaUBKTNV-1" vertex="1">
          <mxGeometry x="1010" y="1002" width="90" height="40" as="geometry" />
        </mxCell>
        <mxCell id="iETxbBGrQo1gQBxABtam-119" value="&lt;font style=&quot;font-size: 20px;&quot;&gt;雁群&lt;/font&gt;" style="swimlane;fontStyle=1;align=center;verticalAlign=top;childLayout=stackLayout;horizontal=1;startSize=28;horizontalStack=0;resizeParent=1;resizeParentMax=0;resizeLast=0;collapsible=1;marginBottom=0;whiteSpace=wrap;html=1;fillColor=#647687;strokeColor=#314354;fontColor=#ffffff;" parent="WIyWlLk6GJQsqaUBKTNV-1" vertex="1">
          <mxGeometry x="1120" y="1002" width="160" height="140" as="geometry" />
        </mxCell>
        <mxCell id="iETxbBGrQo1gQBxABtam-120" value="&amp;nbsp;&amp;nbsp;" style="text;strokeColor=none;fillColor=none;align=left;verticalAlign=top;spacingLeft=4;spacingRight=4;overflow=hidden;rotatable=0;points=[[0,0.5],[1,0.5]];portConstraint=eastwest;whiteSpace=wrap;html=1;" parent="iETxbBGrQo1gQBxABtam-119" vertex="1">
          <mxGeometry y="28" width="160" height="30" as="geometry" />
        </mxCell>
        <mxCell id="iETxbBGrQo1gQBxABtam-121" value="" style="line;strokeWidth=1;fillColor=none;align=left;verticalAlign=middle;spacingTop=-1;spacingLeft=3;spacingRight=3;rotatable=0;labelPosition=right;points=[];portConstraint=eastwest;strokeColor=inherit;" parent="iETxbBGrQo1gQBxABtam-119" vertex="1">
          <mxGeometry y="58" width="160" height="18" as="geometry" />
        </mxCell>
        <mxCell id="iETxbBGrQo1gQBxABtam-122" value="&lt;span style=&quot;font-size: 20px;&quot;&gt;V形飛行()&lt;br&gt;一行飛行()&lt;br&gt;&lt;/span&gt;" style="text;strokeColor=none;fillColor=none;align=left;verticalAlign=top;spacingLeft=4;spacingRight=4;overflow=hidden;rotatable=0;points=[[0,0.5],[1,0.5]];portConstraint=eastwest;whiteSpace=wrap;html=1;" parent="iETxbBGrQo1gQBxABtam-119" vertex="1">
          <mxGeometry y="76" width="160" height="64" as="geometry" />
        </mxCell>
        <mxCell id="iETxbBGrQo1gQBxABtam-123" value="" style="endArrow=open;endFill=1;endSize=12;html=1;rounded=0;entryX=0.996;entryY=1.147;entryDx=0;entryDy=0;entryPerimeter=0;" parent="WIyWlLk6GJQsqaUBKTNV-1" target="iETxbBGrQo1gQBxABtam-126" edge="1">
          <mxGeometry width="160" relative="1" as="geometry">
            <mxPoint x="680" y="1060" as="sourcePoint" />
            <mxPoint x="620" y="1060" as="targetPoint" />
            <Array as="points">
              <mxPoint x="600" y="1060" />
              <mxPoint x="600" y="1120" />
            </Array>
          </mxGeometry>
        </mxCell>
        <mxCell id="iETxbBGrQo1gQBxABtam-125" value="&lt;font style=&quot;font-size: 20px;&quot;&gt;氣候&lt;/font&gt;" style="swimlane;fontStyle=1;align=center;verticalAlign=top;childLayout=stackLayout;horizontal=1;startSize=30;horizontalStack=0;resizeParent=1;resizeParentMax=0;resizeLast=0;collapsible=1;marginBottom=0;whiteSpace=wrap;html=1;fillColor=#1ba1e2;strokeColor=#006EAF;fontColor=#ffffff;" parent="WIyWlLk6GJQsqaUBKTNV-1" vertex="1">
          <mxGeometry x="440" y="1060" width="80" height="90" as="geometry" />
        </mxCell>
        <mxCell id="iETxbBGrQo1gQBxABtam-126" value="&amp;nbsp;&amp;nbsp;" style="text;strokeColor=none;fillColor=none;align=left;verticalAlign=top;spacingLeft=4;spacingRight=4;overflow=hidden;rotatable=0;points=[[0,0.5],[1,0.5]];portConstraint=eastwest;whiteSpace=wrap;html=1;" parent="iETxbBGrQo1gQBxABtam-125" vertex="1">
          <mxGeometry y="30" width="80" height="26" as="geometry" />
        </mxCell>
        <mxCell id="iETxbBGrQo1gQBxABtam-127" value="" style="line;strokeWidth=1;fillColor=none;align=left;verticalAlign=middle;spacingTop=-1;spacingLeft=3;spacingRight=3;rotatable=0;labelPosition=right;points=[];portConstraint=eastwest;strokeColor=inherit;" parent="iETxbBGrQo1gQBxABtam-125" vertex="1">
          <mxGeometry y="56" width="80" height="8" as="geometry" />
        </mxCell>
        <mxCell id="iETxbBGrQo1gQBxABtam-128" value="&amp;nbsp;&amp;nbsp;" style="text;strokeColor=none;fillColor=none;align=left;verticalAlign=top;spacingLeft=4;spacingRight=4;overflow=hidden;rotatable=0;points=[[0,0.5],[1,0.5]];portConstraint=eastwest;whiteSpace=wrap;html=1;" parent="iETxbBGrQo1gQBxABtam-125" vertex="1">
          <mxGeometry y="64" width="80" height="26" as="geometry" />
        </mxCell>
        <mxCell id="iETxbBGrQo1gQBxABtam-129" value="&lt;font style=&quot;font-size: 17px;&quot;&gt;關聯關係&lt;/font&gt;" style="shape=note;size=11;whiteSpace=wrap;html=1;fillColor=#dae8fc;strokeColor=#6c8ebf;" parent="WIyWlLk6GJQsqaUBKTNV-1" vertex="1">
          <mxGeometry x="510" y="1000" width="90" height="40" as="geometry" />
        </mxCell>
        <mxCell id="iETxbBGrQo1gQBxABtam-130" value="&lt;font style=&quot;font-size: 20px;&quot;&gt;唐老鴨&lt;/font&gt;" style="swimlane;fontStyle=1;align=center;verticalAlign=top;childLayout=stackLayout;horizontal=1;startSize=30;horizontalStack=0;resizeParent=1;resizeParentMax=0;resizeLast=0;collapsible=1;marginBottom=0;whiteSpace=wrap;html=1;fillColor=#a0522d;strokeColor=#6D1F00;fontColor=#ffffff;" parent="WIyWlLk6GJQsqaUBKTNV-1" vertex="1">
          <mxGeometry x="800" y="1280" width="80" height="120" as="geometry" />
        </mxCell>
        <mxCell id="iETxbBGrQo1gQBxABtam-131" value="&amp;nbsp;&amp;nbsp;" style="text;strokeColor=none;fillColor=none;align=left;verticalAlign=top;spacingLeft=4;spacingRight=4;overflow=hidden;rotatable=0;points=[[0,0.5],[1,0.5]];portConstraint=eastwest;whiteSpace=wrap;html=1;" parent="iETxbBGrQo1gQBxABtam-130" vertex="1">
          <mxGeometry y="30" width="80" height="26" as="geometry" />
        </mxCell>
        <mxCell id="iETxbBGrQo1gQBxABtam-132" value="" style="line;strokeWidth=1;fillColor=none;align=left;verticalAlign=middle;spacingTop=-1;spacingLeft=3;spacingRight=3;rotatable=0;labelPosition=right;points=[];portConstraint=eastwest;strokeColor=inherit;" parent="iETxbBGrQo1gQBxABtam-130" vertex="1">
          <mxGeometry y="56" width="80" height="8" as="geometry" />
        </mxCell>
        <mxCell id="iETxbBGrQo1gQBxABtam-133" value="&lt;font style=&quot;font-size: 20px;&quot;&gt;講話()&lt;/font&gt;" style="text;strokeColor=none;fillColor=none;align=left;verticalAlign=top;spacingLeft=4;spacingRight=4;overflow=hidden;rotatable=0;points=[[0,0.5],[1,0.5]];portConstraint=eastwest;whiteSpace=wrap;html=1;" parent="iETxbBGrQo1gQBxABtam-130" vertex="1">
          <mxGeometry y="64" width="80" height="56" as="geometry" />
        </mxCell>
        <mxCell id="iETxbBGrQo1gQBxABtam-134" value="" style="endArrow=block;endFill=1;endSize=12;html=1;rounded=0;entryX=0.574;entryY=0.99;entryDx=0;entryDy=0;entryPerimeter=0;exitX=0.5;exitY=0;exitDx=0;exitDy=0;" parent="WIyWlLk6GJQsqaUBKTNV-1" source="iETxbBGrQo1gQBxABtam-130" edge="1">
          <mxGeometry width="160" relative="1" as="geometry">
            <mxPoint x="840" y="1270" as="sourcePoint" />
            <mxPoint x="839.5199999999999" y="1142.004" as="targetPoint" />
          </mxGeometry>
        </mxCell>
        <mxCell id="iETxbBGrQo1gQBxABtam-135" value="&lt;font style=&quot;font-size: 17px;&quot;&gt;繼承關係&lt;/font&gt;" style="shape=note;size=11;whiteSpace=wrap;html=1;fillColor=#dae8fc;strokeColor=#6c8ebf;" parent="WIyWlLk6GJQsqaUBKTNV-1" vertex="1">
          <mxGeometry x="737" y="1190" width="90" height="40" as="geometry" />
        </mxCell>
        <mxCell id="iETxbBGrQo1gQBxABtam-138" value="«interface»&lt;br&gt;&lt;b&gt;飛翔&lt;/b&gt;" style="html=1;whiteSpace=wrap;" parent="WIyWlLk6GJQsqaUBKTNV-1" vertex="1">
          <mxGeometry x="1040" y="1330" width="110" height="50" as="geometry" />
        </mxCell>
      </root>
    </mxGraphModel>
  </diagram>
</mxfile>
